<svg xmlns="http://www.w3.org/2000/svg" xmlns:xlink="http://www.w3.org/1999/xlink" data-name="Layer 2" viewBox="0 0 1117.24 1233.23" style="fill: rgb(0, 0, 0);" original_string_length="11657"><g data-name="Layer 1"><g><g><path d="m955.55,1068.5c-60.81,98.88-171.93,157.7-286.38,163.85-110.58,6.9-223.14-27.06-310.04-94.88,89.38,60.76,201.48,87.08,307.93,73.3,103.66-12.57,201.84-70.82,251.11-164.28,0,0,37.38,22.01,37.38,22.01h0Z" style="fill: rgb(255, 54, 108);"/><g><path d="m322.33,97.58c181-124.22,443.44-139.28,614.36,9.91,23.43,20.13,44.63,42.67,63.37,66.98-20.15-23.17-42.51-44.29-66.78-62.77C813.07,18.19,645.88.94,504.08,49.87c-56.49,18.92-109.53,47.26-156.54,83.01,0,0-25.21-35.29-25.21-35.29h0Z" style="fill: rgb(255, 54, 108);"/><path d="m917.53,525.04c159.58,81.38,233.39,267.48,185.09,437.59-14.81,53.59-40.98,103.77-75.75,146.88,31.71-45.06,54.2-96.2,65.21-149.44,28.47-130.65-17.94-276.59-126.28-356.67-20.8-15.69-43.4-28.82-67.13-39.3,0,0,18.85-39.06,18.85-39.06h0Z" style="fill: rgb(255, 54, 108);"/><path d="m185.8,399.12c121.34-100.57,452.88-252.46,483.05,3.64.99,9.17,1.8,19.68,1.93,28.87,0,0,.17,9.62.17,9.62l-.85-9.58c-.78-9.11-2.29-19.47-3.93-28.51-26.88-147.88-149.93-140.55-263.33-92.39-57.43,24.58-111.71,57.41-160.48,96.33-9.62,7.75-18.86,15.84-27.4,24.13,0,0-29.16-32.11-29.16-32.11h0Z" style="fill: rgb(214, 5, 61);"/></g></g><g><path d="m941.68,490.06c-5.76,10.25-12.05,20.64-18.87,31.13l-106.77-15.72-16.6-2.69-111.72-18.12c61.19-78.09,22.65-438.31-445.26-68.32-22.05,17.45-48.35,28.89-76.25,32.32-70.93,8.75-81.73-39.77-77.77-83.48.82-8.99,2.28-17.88,4.37-26.6,5.98-25.04,17.07-48.7,32.43-69.56,5.93-8.05,11.99-15.87,18.18-23.48C352.54-11.59,708.06-23.04,885.35,111.49c106.44,80.77,148.65,214.15,56.32,378.57Z" style="fill: rgb(255, 54, 108);"/><g opacity=".1"><path d="m818.61,488.8l-16.48-2.67-87.95-14.27c6.81-16.39,11.18-36.39,12.43-57.94,2.06-35.37-4.49-70.64-18.44-99.3-24.89-51.12-71.89-79.27-132.34-79.27-87.38,0-203.07,56.44-343.84,167.75-20.04,15.86-43.5,25.82-67.85,28.81-4.87.6-9.51.91-13.8.91-15.7,0-26.85-3.85-34.1-11.79-11.98-13.12-12.6-36.79-11.01-54.33.74-8.16,2.08-16.3,3.97-24.18,5.46-22.86,15.42-44.22,29.62-63.51,5.68-7.71,11.63-15.39,17.68-22.84,57.52-70.72,128.45-125.28,210.84-162.15,74.05-33.14,155.86-50.66,236.6-50.66,52.41,0,102.76,7.18,149.66,21.35,46.53,14.06,87.43,34.32,121.56,60.21,52.03,39.48,85.34,90.54,96.33,147.67,12.36,64.2-2.62,134.59-44.52,209.21-3.91,6.97-8.11,14.04-12.52,21.11l-95.84-14.11Z" style="fill: rgb(255, 255, 255);"/></g><path d="m816.04,505.47l-89.77-14.55-38.55-6.25c61.19-78.09,22.65-438.31-445.26-68.32-22.05,17.45-48.35,28.89-76.25,32.32-45.4,5.6-66.17-12.26-74.19-37.31-4.52-14.08-5-30.43-3.58-46.17.82-8.99,2.28-17.88,4.37-26.6,3.42,22.23,42.23,93.89,118.77,17.35,113.71-113.72,264.7-186.92,348.62-202.57,209.96-39.14,330.89,195.11,255.85,352.11Z" style="fill: rgb(214, 5, 61);"/><g opacity=".8"><path d="m945.42,483.28c-5.76,10.25-15.79,27.42-22.61,37.91l-103.93-22.53-71.24-14.55,19.56-40.59s105.93,41.39,178.22,39.76Z" style="fill: rgb(148, 2, 41);"/></g><path d="m758.29,486.69l-32.02,4.23-38.55-6.25c61.19-78.09,22.65-438.31-445.26-68.32-22.05,17.45-48.35,28.89-76.25,32.32-45.4,5.6-66.17-12.26-74.19-37.31,35.29,24.75,88.84,22.99,149.38-25.6,125.09-100.42,220.31-181.23,326.53-190.95,181.73-16.62,242.77,161.35,190.36,291.89Z" style="fill: rgb(148, 2, 41);"/><g opacity=".3"><path d="m863.14,494.62c153.68-222.51-228.9-668.9-638.66-197.22-11.84,13.64-28.04,22.95-45.9,25.61-31.58,4.71-40.37-14.66-41.27-35.21-.97-22.41,7.22-44.28,22.06-61.1C317.35,47.79,549.13-1.33,728.14,40.46c205.54,46.18,282.05,305.15,134.99,454.16Z" style="fill: rgb(255, 255, 255);"/></g><g opacity=".5"><path d="m200.58,277.14c-12.17,13.74-34.26-1.27-25.93-17.63,2.21-4.34,4.98-8.43,8.2-12.07,96.71-109.54,232.33-176.61,377.29-187.92-91.76,8.91-220.05,57.04-359.31,217.33-.08.09-.16.19-.25.28Zm703.23-14.7c-53.71-123.22-175.6-204.39-308.33-204.56,137.32-8.33,283.98,56.29,308.33,204.56Z" style="fill: rgb(255, 255, 255);"/></g></g><g><g><path d="m385.94,1023.77c-14.01-8.02,2.05,1.54-19.87-11.66-21.92-13.2-82.49-53.73-105-66.19-1.48-.82-2.81-1.55-3.96-2.19-.04-.02-.06-.04-.1-.06-4.75-2.63-7-3.87-8.14-4.52-.46-.25-.92-.51-1.39-.76-.02-.02-.06-.04-.1-.06-.04-.01-.07-.04-.12-.06-.05-.02-.1-.06-.16-.08-.01,0-.01-.01-.02-.01-.07-.05-.17-.1-.28-.16-.01-.01-.02-.01-.04-.02-.1-.05-.18-.1-.28-.16-.37-.19-.75-.4-1.12-.61-.2-.11-.42-.23-.64-.35h-.01c-.34-.19-.73-.41-1.18-.65-.28-.16-.59-.34-.93-.51-.19-.11-.39-.22-.58-.33-.4-.22-.8-.43-1.2-.66-.11-.06-.23-.13-.35-.19-.11-.06-.22-.12-.33-.18,3.48-30.73,5.2-59.87,5.43-88.02v-.14c.37-43.28-2.76-84.29-8.36-125.39-.25-1.88-.52-3.76-.78-5.64-.37-2.71-.77-5.43-1.18-8.16-.18-1.24-.37-2.49-.55-3.75-.06-.4-.13-.81-.19-1.2-.19-1.25-.39-2.52-.59-3.77-.22-1.46-.46-2.92-.69-4.37s-.46-2.92-.71-4.37c-.24-1.46-.48-2.92-.72-4.39-5.28-31.48-11.81-63.43-19.14-96.89-.06-.27-.12-.54-.18-.81-.1-.42-.18-.86-.28-1.29-.35-1.55-.69-3.11-1.04-4.67-2.07-9.37-4.2-18.87-6.39-28.51-1.77-7.8-1.73-14.22-.41-19.76.01-.07.04-.14.06-.22,2.53-10.28,9.55-17.57,17.85-25.17.06-.06.13-.12.19-.18.9-.82,1.82-1.65,2.76-2.51h.01c2.01-1.82,66.11-45.46,100.61,15.57,60.59,188.37,66.55,306.64,60.07,503.06Z" style="fill: rgb(255, 54, 108);"/><g opacity=".1"><path d="m361.89,979.62c-30.22-19.27-71.83-47.04-94.83-59.32,11.47-116.94-3.54-220.45-29.96-338.75-2.12-13.62-8.32-28.74-8.09-42.5-.34-6.86,25.41-28.9,48.96-25.66,8.99,1.24,16.5,7.49,19.92,15.9,63.88,157.12,64.78,281.06,64,450.33Z" style="fill: rgb(255, 255, 255);"/></g><path d="m385.64,1023.61c-5.17-2.67-10.42-6.02-15.67-9.26,7.55-200.11-3.55-309.1-61.19-502.08-4.89-16.39-10.01-14.49-20.73-22.49,17,3.51,29.19,3.81,37.85,30.86,60.35,188.46,66.94,306.86,59.75,502.97Z" style="fill: rgb(214, 5, 61);"/><path d="m257.12,943.72s-.06-.04-.1-.06c-2.73-1.54-5.42-3.02-8.14-4.52-.46-.25-.92-.51-1.39-.76-.02-.01-.06-.04-.1-.06-.04-.01-.07-.04-.12-.06-.05-.02-.11-.06-.16-.08-.01,0-.01-.01-.02-.01-.1-.06-.18-.11-.28-.16-.01-.01-.02-.01-.04-.02-.1-.05-.18-.1-.28-.16-.37-.19-.75-.4-1.12-.61-.2-.11-.42-.23-.64-.35h-.01c-.39-.22-.78-.43-1.18-.65-.3-.17-.61-.34-.93-.51-.19-.11-.39-.22-.58-.33-.4-.22-.8-.43-1.2-.66-.11-.06-.23-.13-.35-.19,3.3-30.84,4.93-60.02,5.11-88.2v-.14c.29-43.32-2.81-84.3-8.36-125.39-.25-1.88-.52-3.76-.78-5.64-.37-2.71-.77-5.43-1.18-8.16-.18-1.25-.36-2.49-.55-3.75-.06-.4-.13-.81-.19-1.2-.19-1.25-.39-2.52-.59-3.77-.22-1.46-.45-2.92-.69-4.37-.23-1.46-.46-2.92-.71-4.37-.23-1.46-.47-2.92-.72-4.39-5.24-31.47-11.76-63.4-19.14-96.89-.06-.27-.12-.54-.18-.81-.1-.42-.18-.86-.28-1.29-.35-1.55-.69-3.11-1.04-4.67-2.1-9.39-4.25-18.9-6.47-28.58-1.8-7.82-1.71-14.19-.33-19.69.01-.07.04-.14.06-.22,2.64-10.17,9.78-17.32,17.85-25.17.06-.06.13-.12.19-.18.9-.82,1.82-1.65,2.76-2.51-8,9.19-12.53,19.05-10.95,32.44,32.51,144.85,61.61,254.44,42.82,406.13Z" style="fill: rgb(214, 5, 61);"/><g opacity=".5"><path d="m283.72,981.84c22.56-166.84-1.73-279.7-41.31-439.79-5.55-22.84,38.21-35.25,44.54-12.01,53.59,189.33,60.01,292.54,49.85,486.88-17.86-11.34-35.14-23.55-53.08-35.09Z" style="fill: rgb(255, 255, 255);"/></g><g opacity=".8"><path d="m244.28,888.24s70.77,81.73,143.49,55.37c-.75,23.8.23,78.49.23,78.49l-148.9-71.41,5.17-62.46Z" style="fill: rgb(148, 2, 41);"/></g><g opacity=".5"><path d="m315.33,827.45c-5.54-92.42-28.82-176.95-55.18-283.88-.81-3.29,1.16-6.63,4.42-7.49.06-.01.11-.04.17-.05,3.28-.87,6.66,1.05,7.58,4.33,32.1,114.36,41.42,196.21,43.01,287.1Z" style="fill: rgb(255, 255, 255);"/></g></g><path d="m456.04,1074.63c-69.19-18.51-134.77-48.42-194.77-87.56-150.73-98.33-240.27-75.34-206.85,12.28,34.7,95.46,164.24,142.86,245.34,71.56h.01l45.75,24.47c-1.64,1.34-3.28,2.65-4.93,3.94C159.99,1241.69-.77,1131.22,0,971.91c.04-8.06.77-16.11,2.64-23.95,19.87-83.54,134.49-105.33,239.34-26.6,29.34,20.78,57.78,38.02,85.26,52.07,22.76,11.65,44.85,21.1,66.24,28.58l.4.13c2.4.84,4.77,1.64,7.14,2.42.02.01.06.02.08.04,308.58,101.88,465.98-210.78,331.36-320.73-.04-.05-.08-.08-.13-.12-2.8-2.28-5.72-4.48-8.78-6.58-46.69-32.12-123.15-42.47-233.9-11.26,26.49-13.26,51.89-23.88,76.14-32.08,32.7-11.07,63.34-17.75,91.84-20.65,7.64-.78,15.13-1.29,22.47-1.53,364.07-12.26,346.76,615.73-224.08,462.99Z" style="fill: rgb(214, 5, 61);"/><path d="m1071.84,816.72c-20.87,263.62-188.8,384.64-412.63,380.46-113.37-2.11-223.62-36.55-318.62-97.86-10.53-6.84-40.82-28.41-40.82-28.41h-.01c-81.11,71.3-210.64,23.89-245.34-71.56-33.42-87.61,56.12-110.61,206.85-12.28,60,39.14,125.57,69.06,194.77,87.56,657.05,175.81,580.75-682.75,33.63-408.72,110.74-31.2,187.21-20.85,233.9,11.26-70.2,48.16-142.12,66.4-197.67,61.96-.02.01-.05.01-.06,0-13.92-1.11-26.81-3.64-38.38-7.49-52.18-17.32-77.71-61.25-50.54-121.36,12.94-28.61,34.57-52.37,61.18-69.03,29.17-18.26,61.24-33.01,94.86-43.93,176.73-57.41,396.4-9.42,462.75,186.02,14.54,42.83,19.72,88.29,16.14,133.38Z" style="fill: rgb(255, 54, 108);"/><g opacity=".1"><path d="m670.36,1180.42c-128.96,1.49-283.38-41.26-385.11-120.06l8.16-6.31c-178.65,146.93-386.46-268.02-41.36-52.85,217.47,155.47,675.61,189.09,689.36-159.35-5.28-235.62-246.6-314.09-451.75-175.94h0c42.77-12.05,86.32-28.91,120.77-28.91,30.78,0,71.49,19.53,93.82,29-48.75,47.54-213.22,88.7-256.91,13.08-25.15-86.01,79.33-144.14,150.81-165.71,102.65-34.44,232.77-29.26,321.94,25.78,193.99,111.85,162.71,418.64,13.93,552.46-71.54,63.28-164.56,88.76-263.67,88.81Z" style="fill: rgb(255, 255, 255);"/></g><path d="m209.34,1038.4c-58.4,41.39-133.7-52.87-103.19-68.24,8.67-4.37,19.24-2.67,28.43.46,56.09,19.09,109.01,59.55,165.18,100.29-7.41,15.13-20.2,23.17-37.16,25.75-1.4-27.06-20.11-45.99-53.26-58.25Z" style="fill: rgb(148, 2, 41);"/><g opacity=".5"><path d="m520.29,1144.28c591.9,29.34,511.75-449.69,340.7-549.67-171.04-99.99-519.99,13.72-335.1,144.53,0,.01.01.01.01.01-130.08-8.8-124.58-136.27-27.82-197.9,1.62-1.01,3.25-2.02,4.89-3.01,50.7-30.73,108.64-47.49,167.88-49.87,523.4-21.04,472.38,822.6-150.56,655.91Z" style="fill: rgb(255, 255, 255);"/></g><g opacity=".5"><path d="m1005.31,867.12c3.08-47.93-4.42-97.97-22.22-145.51-24.17-64.55-64.9-117.29-111.76-144.68-57.87-33.83-125.27-40.93-171.62-40.93-54.25,0-108.39,9.69-152.44,27.28-49.36,19.71-80.82,47.01-90.97,78.94-3.77,11.87-5.31,26.54-.53,43.05-2.98-4.75-5.22-9.96-6.66-15.61-4.26-16.71-1.3-36.54,8.35-55.83,10.74-21.49,28.57-40.6,51.57-55.26,1.51-.95,3.04-1.88,4.57-2.81,46.89-28.42,101.55-44.64,158.08-46.92,6.12-.25,12.27-.37,18.28-.37,98.85,0,181.47,33.56,238.95,97.04,51.19,56.54,79.38,133.14,79.38,215.71,0,15.47-.99,30.79-2.97,45.91Z" style="fill: rgb(255, 255, 255);"/></g><g opacity=".8"><path d="m713.12,651.03c1.49,17.17-45.71,40.26-97.27,44.74s-124.69-12.69-126.19-29.86c20.95-12.01,69.21-27.82,120.78-32.31,51.57-4.49,101.19.26,102.68,17.42Z" style="fill: rgb(214, 5, 61);"/></g><path d="m763.57,978.73c-53.43,55.13-129,91.19-206.83,88.01-76.93-3.16-195.81-48.44-229.5-93.31,22.76,11.65,44.85,21.1,66.24,28.58l.4.13c2.4.84,4.77,1.64,7.14,2.42.02.01.06.02.08.04,308.58,101.88,465.98-210.78,331.36-320.73-.04-.05-.08-.08-.13-.12-45.44-42.08-125.82-58.32-242.68-17.84,27.26-12.4,52.32-23.37,76.14-32.08,32.08-11.72,61.91-19.31,91.84-20.65,16.25-.72,32.54.39,49.23,3.69,73.75,16,113.03,70.42,125.14,137.32,14.71,81.32-10.93,165.19-68.44,224.55Z" style="fill: rgb(148, 2, 41);"/><g opacity=".8"><path d="m443.96,1040.75c-65.62-8.84-125.71-38.94-182.21-72.66-75.27-44.92-181.26-117.07-234.71-22.19,38.87-95.27,146.69-49.66,221.83.09,60.52,40.07,124.26,76.19,195.08,94.77Z" style="fill: rgb(255, 54, 108);"/></g></g></g></g></svg>